HIERARCHY
ROOT Hips
{
	OFFSET 0.00000 0.00000 0.00000
	CHANNELS 6 Xposition Yposition Zposition Zrotation Yrotation Xrotation 
	JOINT LHipJoint
	{
		OFFSET 0 0 0
		CHANNELS 3 Zrotation Yrotation Xrotation
		JOINT LeftUpLeg
		{
			OFFSET 1.54859 -1.61379 0.86856
			CHANNELS 3 Zrotation Yrotation Xrotation
			JOINT LeftLeg
			{
				OFFSET 2.25087 -6.18423 0.00000
				CHANNELS 3 Zrotation Yrotation Xrotation
				JOINT LeftFoot
				{
					OFFSET 2.40328 -6.60297 0.00000
					CHANNELS 3 Zrotation Yrotation Xrotation
					JOINT LeftToeBase
					{
						OFFSET 0.17435 -0.47901 2.02453
						CHANNELS 3 Zrotation Yrotation Xrotation
						End Site
						{
							OFFSET 0.00000 -0.00000 1.04844
						}
					}
				}
			}
		}
	}
	JOINT RHipJoint
	{
		OFFSET 0 0 0
		CHANNELS 3 Zrotation Yrotation Xrotation
		JOINT RightUpLeg
		{
			OFFSET -1.54669 -1.61379 0.86856
			CHANNELS 3 Zrotation Yrotation Xrotation
			JOINT RightLeg
			{
				OFFSET -2.28132 -6.26789 0.00000
				CHANNELS 3 Zrotation Yrotation Xrotation
				JOINT RightFoot
				{
					OFFSET -2.51636 -6.91365 0.00000
					CHANNELS 3 Zrotation Yrotation Xrotation
					JOINT RightToeBase
					{
						OFFSET -0.15124 -0.41552 2.21090
						CHANNELS 3 Zrotation Yrotation Xrotation
						End Site
						{
							OFFSET -0.00000 -0.00000 1.13399
						}
					}
				}
			}
		}
	}
	JOINT LowerBack
	{
		OFFSET 0 0 0
		CHANNELS 3 Zrotation Yrotation Xrotation
		JOINT Spine
		{
			OFFSET -0.04287 2.26161 -0.25690
			CHANNELS 3 Zrotation Yrotation Xrotation
			JOINT Spine1
			{
				OFFSET 0.02248 2.28395 -0.10140
				CHANNELS 3 Zrotation Yrotation Xrotation
				JOINT Neck
				{
					OFFSET 0 0 0
					CHANNELS 3 Zrotation Yrotation Xrotation
					JOINT Neck1
					{
						OFFSET -0.11644 1.38496 0.11345
						CHANNELS 3 Zrotation Yrotation Xrotation
						JOINT Head
						{
							OFFSET 0.29383 1.36600 0.06642
							CHANNELS 3 Zrotation Yrotation Xrotation
							End Site
							{
								OFFSET 0.11075 1.41395 -0.00294
							}
						}
					}
				}
				JOINT LeftShoulder
				{
					OFFSET 0 0 0
					CHANNELS 3 Zrotation Yrotation Xrotation
					JOINT LeftArm
					{
						OFFSET 3.51628 0.59542 -0.30346
						CHANNELS 3 Zrotation Yrotation Xrotation
						JOINT LeftForeArm
						{
							OFFSET 4.76405 -0.00000 0.00000
							CHANNELS 3 Zrotation Yrotation Xrotation
							JOINT LeftHand
							{
								OFFSET 3.13759 -0.00000 -0.00000
								CHANNELS 3 Zrotation Yrotation Xrotation
								JOINT LeftFingerBase
								{
									OFFSET 0 0 0
									CHANNELS 3 Zrotation Yrotation Xrotation
									JOINT LeftHandIndex1
									{
										OFFSET 0.73226 -0.00000 -0.00000
										CHANNELS 3 Zrotation Yrotation Xrotation
										End Site
										{
											OFFSET 0.59037 -0.00000 -0.00000
										}
									}
								}
								JOINT LThumb
								{
									OFFSET 0 0 0
									CHANNELS 3 Zrotation Yrotation Xrotation
									End Site
									{
										OFFSET 0.59938 -0.00000 0.59938
									}
								}
							}
						}
					}
				}
				JOINT RightShoulder
				{
					OFFSET 0 0 0
					CHANNELS 3 Zrotation Yrotation Xrotation
					JOINT RightArm
					{
						OFFSET -3.30990 0.84213 -0.36430
						CHANNELS 3 Zrotation Yrotation Xrotation
						JOINT RightForeArm
						{
							OFFSET -5.10161 -0.00000 -0.00000
							CHANNELS 3 Zrotation Yrotation Xrotation
							JOINT RightHand
							{
								OFFSET -3.23267 -0.00000 -0.00000
								CHANNELS 3 Zrotation Yrotation Xrotation
								JOINT RightFingerBase
								{
									OFFSET 0 0 0
									CHANNELS 3 Zrotation Yrotation Xrotation
									JOINT RightHandIndex1
									{
										OFFSET -0.70200 -0.00000 -0.00000
										CHANNELS 3 Zrotation Yrotation Xrotation
										End Site
										{
											OFFSET -0.56597 -0.00000 -0.00000
										}
									}
								}
								JOINT RThumb
								{
									OFFSET 0 0 0
									CHANNELS 3 Zrotation Yrotation Xrotation
									End Site
									{
										OFFSET -0.57461 -0.00000 0.57461
									}
								}
							}
						}
					}
				}
			}
		}
	}
}
MOTION
Frames: 8
Frame Time: .0083333
-34.3476 15.1346 -16.1945 0 0 0 0 0 0 -21 0 0 0 0 0 0 0 0 0 0 0 0 0 0 21 0 0 0 0 0 0 0 0 0 0 0 0 0 0 0 0 0 0 0 0 0 0 -16 0 0 21 0 0 11 0 0 0 -8 0 0 0 0 0 0 0 0 0 0 0 0 0 0 0 0 0 0 0 0 8 0 0 0 0 0 0 0 0 0 0 0 0 0 0 0 0 0
-34.3476 15.1346 -16.1945 0.8020 58.8460 7.2896 0.0000 0.0000 0.0000 -15.9202 13.4065 -36.8533 12.4900 18.5902 67.5338 0.7477 -7.3378 -15.4971 0.3521 3.8122 10.5489 0.0000 0.0000 0.0000 6.9222 -2.6621 -6.3194 -3.5455 -11.5297 34.0877 -2.9721 -0.2950 -32.7981 -1.7152 8.2457 -23.4629 3.1159 -3.4387 15.8808 3.5654 -3.6494 9.3927 2.5259 -1.6296 1.1479 -7.2097 -3.2028 -9.3269 8.7466 -2.7948 -13.5423 3.8295 -1.1490 -2.2588 0.0000 -0.0000 0.0000 -95.0244 4.0413 49.8496 84.6859 -59.8930 -55.3995 -0.0000 0.0000 -33.7061 11.2053 14.0896 2.7610 -7.1250 0.0000 -0.0000 -14.8416 43.8191 0.4428 0.0000 -0.0000 0.0000 77.6877 -1.1915 59.1458 -91.0477 59.9959 -60.9073 0.0000 -0.0000 -18.8099 -21.6795 21.5511 -8.3080 7.1250 -0.0000 -0.0000 4.4465 -7.0118 3.8825
-34.2154 15.1480 -16.1519 0.3961 58.8004 6.9628 0.0000 0.0000 0.0000 -14.5884 13.6077 -38.0164 12.2261 18.4846 66.7037 0.7837 -6.0203 -15.7804 0.0083 -0.5888 -1.6180 0.0000 0.0000 0.0000 7.1394 -2.9472 -5.0962 -3.2726 -11.1238 32.6986 -2.8442 -1.5482 -32.5019 -1.9016 8.6580 -24.7313 2.6402 -3.0094 16.3785 3.6281 -3.1204 9.1478 2.8100 -1.3912 0.6414 -7.9389 -3.3866 -8.7387 9.3736 -2.9964 -13.4308 4.1464 -1.2466 -2.2709 -0.0000 -0.0000 0.0000 -94.6887 4.8692 48.2088 83.8890 -59.8584 -54.7103 -0.0000 0.0000 -35.1329 9.0237 13.6102 2.1401 -7.1250 0.0000 -0.0000 -16.6171 43.1204 0.7943 -0.0000 -0.0000 0.0000 78.3794 -1.2566 60.0730 -88.9809 59.9961 -59.1174 0.0000 -0.0000 -17.6330 -21.7547 21.7242 -8.4022 7.1250 -0.0000 -0.0000 4.4145 -6.8184 3.8710
-34.0825 15.1386 -16.1096 -0.3956 58.8514 6.4696 0.0000 0.0000 0.0000 -12.9001 13.6142 -39.0732 11.8135 18.3107 65.3965 0.7709 -6.1951 -15.6562 0.0575 -1.5477 -4.2572 0.0000 0.0000 0.0000 7.5912 -3.2795 -4.1783 -3.0512 -10.7775 31.5333 -2.7957 -2.0921 -32.4261 -1.7652 8.3589 -23.8097 1.7320 -2.7123 16.4924 4.2422 -2.8365 8.9952 3.9365 -1.3002 0.4909 -10.1007 -3.3547 -7.5201 10.6172 -2.7882 -14.0745 4.9280 -1.1025 -2.6033 0.0000 0.0000 0.0000 -95.3807 5.3688 46.1745 82.8640 -59.8067 -53.8240 -0.0000 0.0000 -36.0048 8.2276 12.8657 1.8441 -7.1250 0.0000 -0.0000 -17.0845 42.3218 1.1662 0.0000 0.0000 0.0000 77.8722 -0.9978 61.6153 -87.3810 59.9741 -57.7320 0.0000 -0.0000 -16.7283 -21.8834 21.7955 -8.4822 7.1250 -0.0000 -0.0000 4.3398 -6.7230 3.8132
-33.9445 15.1247 -16.0686 -0.9350 58.9840 6.4020 0.0000 0.0000 0.0000 -11.3534 13.6459 -40.3152 11.3266 18.0912 63.8376 0.7205 -6.8002 -15.1752 0.0308 -1.1329 -3.1146 0.0000 0.0000 0.0000 7.9267 -3.6689 -3.4279 -2.8204 -10.3985 30.2770 -2.7767 -2.4918 -32.4701 -1.5174 7.7788 -22.0441 1.8201 -2.0436 16.1108 3.9167 -1.9866 8.9568 3.3945 -0.8681 0.5810 -10.2649 -3.8494 -6.6053 11.8467 -3.3736 -14.7243 5.3630 -1.4451 -2.8329 0.0000 -0.0000 0.0000 -93.5791 5.8825 46.0523 83.1876 -59.8239 -54.1037 -0.0000 0.0000 -37.1885 8.1549 12.4752 1.7730 -7.1250 0.0000 -0.0000 -17.0318 41.9388 1.3288 0.0000 -0.0000 0.0000 79.6196 -0.6218 61.5461 -85.1505 59.9109 -55.8015 0.0000 -0.0000 -15.6453 -22.0884 21.7593 -8.5555 7.1250 -0.0000 -0.0000 4.2071 -6.7278 3.6955
-33.8239 15.1040 -16.0274 -1.2704 59.0050 5.9085 0.0000 0.0000 0.0000 -9.6719 12.8126 -40.3263 10.7370 17.8040 61.9246 0.7089 -6.5261 -15.0356 0.0299 -1.1167 -3.0701 0.0000 0.0000 0.0000 8.1608 -3.8546 -2.1517 -2.6332 -10.0761 29.2235 -2.7167 -3.5414 -32.5533 -1.5038 7.7454 -21.9435 1.0847 -1.3909 16.6209 4.0134 -1.2060 9.0698 3.8069 -0.5032 0.4191 -10.7099 -4.6021 -6.5800 12.7998 -4.2784 -14.9241 5.7305 -1.9042 -2.7453 0.0000 -0.0000 0.0000 -92.6173 6.4283 45.4176 85.0968 -59.9090 -55.7550 -0.0000 0.0000 -37.9501 7.3908 14.1496 1.8162 -7.1250 0.0000 -0.0000 -18.2133 43.4666 0.7145 0.0000 -0.0000 0.0000 80.2787 0.1826 62.0124 -83.1318 59.8210 -54.0555 0.0000 -0.0000 -15.1146 -22.2508 21.6930 -8.5995 7.1250 -0.0000 -0.0000 4.0984 -6.7709 3.5961
-33.6886 15.0855 -15.9904 -1.6535 59.3311 5.7298 0.0000 0.0000 0.0000 -8.0799 12.0551 -40.7037 10.0671 17.4474 59.7123 0.6658 -6.5600 -14.5843 0.0658 -1.6548 -4.5526 0.0000 0.0000 0.0000 8.3539 -4.2916 -1.3001 -2.4728 -9.7883 28.2939 -2.6650 -4.2593 -32.5699 -1.5874 7.9480 -22.5562 0.8386 -0.8627 16.7942 3.8583 -0.5508 8.9160 3.6803 -0.1810 0.1251 -10.9177 -5.4136 -6.2208 13.9862 -5.2923 -15.0674 6.1310 -2.4518 -2.6616 0.0000 -0.0000 0.0000 -91.2661 6.9310 44.7060 86.5830 -59.9558 -57.0413 -0.0000 0.0000 -38.4915 5.7632 17.2397 1.7133 -7.1250 0.0000 -0.0000 -20.7683 46.1988 -0.6419 0.0000 -0.0000 0.0000 81.4444 0.3622 62.1734 -81.5894 59.7310 -52.7227 0.0000 -0.0000 -13.6827 -22.4381 21.5773 -8.6352 7.1250 -0.0000 -0.0000 3.9692 -6.8620 3.4751
-33.5566 15.0412 -15.9555 -2.1552 59.6459 5.3248 0.0000 0.0000 0.0000 -6.1860 10.5185 -40.6032 9.3713 17.0408 57.3656 0.6498 -6.1355 -14.3839 0.1345 -2.3641 -6.5131 0.0000 0.0000 0.0000 8.4287 -5.0000 -0.5239 -2.3476 -9.5555 27.5489 -2.6695 -4.0046 -32.4828 -1.5820 7.9349 -22.5164 0.6926 -0.2951 17.2038 3.6250 0.1748 8.7603 3.3979 0.1828 -0.2979 -11.2787 -6.2161 -5.6582 15.4648 -6.2612 -15.4278 6.6616 -2.9888 -2.6427 -0.0000 0.0000 0.0000 -89.8260 7.0103 43.8106 86.8268 -59.9619 -57.2523 -0.0000 0.0000 -39.9030 3.3990 17.8712 1.0442 -7.1250 0.0000 -0.0000 -23.1295 46.4852 -0.8950 -0.0000 0.0000 0.0000 82.9501 0.4688 61.9391 -79.9689 59.6163 -51.3240 0.0000 -0.0000 -10.7795 -22.6923 21.3605 -8.6599 7.1250 -0.0000 -0.0000 3.7879 -7.0487 3.3019
